<svg width="22" height="22" viewBox="0 0 22 22" fill="none" xmlns="http://www.w3.org/2000/svg">
<g clip-path="url(#clip0_6_1995)">
<path d="M20.2157 18.3494H6.1731C5.59433 18.3494 5.12524 17.8803 5.12524 17.3015C5.12524 16.7228 5.59433 16.2537 6.1731 16.2537H20.2154C20.7941 16.2537 21.2632 16.7228 21.2632 17.3015C21.2632 17.8803 20.7945 18.3494 20.2157 18.3494Z" fill="#404040"/>
<path d="M20.2157 11.772H6.1731C5.59433 11.772 5.12524 11.3029 5.12524 10.7241C5.12524 10.1454 5.59433 9.67627 6.1731 9.67627H20.2154C20.7941 9.67627 21.2632 10.1454 21.2632 10.7241C21.2636 11.3029 20.7945 11.772 20.2157 11.772Z" fill="#404040"/>
<path d="M20.2157 5.19458H6.1731C5.59433 5.19458 5.12524 4.72549 5.12524 4.14673C5.12524 3.56797 5.59433 3.09888 6.1731 3.09888H20.2154C20.7941 3.09888 21.2632 3.56797 21.2632 4.14673C21.2632 4.72549 20.7945 5.19458 20.2157 5.19458Z" fill="#404040"/>
<path d="M1.67045 5.63509C2.44766 5.63509 3.07771 5.00503 3.07771 4.22782C3.07771 3.45061 2.44766 2.82056 1.67045 2.82056C0.893238 2.82056 0.263184 3.45061 0.263184 4.22782C0.263184 5.00503 0.893238 5.63509 1.67045 5.63509Z" fill="#404040"/>
<path d="M1.67045 12.1314C2.44766 12.1314 3.07771 11.5014 3.07771 10.7242C3.07771 9.94695 2.44766 9.31689 1.67045 9.31689C0.893238 9.31689 0.263184 9.94695 0.263184 10.7242C0.263184 11.5014 0.893238 12.1314 1.67045 12.1314Z" fill="#404040"/>
<path d="M1.67045 18.6278C2.44766 18.6278 3.07771 17.9977 3.07771 17.2205C3.07771 16.4433 2.44766 15.8132 1.67045 15.8132C0.893238 15.8132 0.263184 16.4433 0.263184 17.2205C0.263184 17.9977 0.893238 18.6278 1.67045 18.6278Z" fill="#404040"/>
</g>
<defs>
<clipPath id="clip0_6_1995">
<rect width="21" height="21" fill="white" transform="translate(0.263184 0.223877)"/>
</clipPath>
</defs>
</svg>
