<svg width="350" height="417" viewBox="0 0 350 417" fill="none" xmlns="http://www.w3.org/2000/svg">
<path d="M220.001 147.178C220.001 147.178 244.291 158.524 238.971 212.848C233.651 267.173 170.691 369.939 162.711 380.214C154.731 390.49 123.251 420.831 82.0114 415.445C40.7714 410.059 19.5314 382.124 19.5314 382.124M31.9314 258.508C22.0114 247.626 -16.2086 199.449 30.5714 148.248C83.7814 90.0056 129.631 162.475 129.631 162.475M154.331 144.937C154.241 133.061 156.681 109.474 175.641 96.9362M175.641 96.9362C176.191 96.572 176.751 96.2188 177.331 95.8766C205.271 79.2437 234.091 93.4374 245.171 102.731C256.261 112.035 262.911 120.567 266.901 125.6C270.891 130.632 288.181 164.881 294.391 172.22C300.591 179.56 340.941 214.801 347.591 251.5C354.241 288.209 337.401 307.292 332.521 317.568C327.641 327.843 308.581 350.359 288.181 361.12C267.781 371.892 234.531 371.892 211.921 361.12C198.991 354.973 190.981 347.059 186.491 341.408M175.641 96.9362C154.621 53.0526 169.791 0.947266 169.791 0.947266M167.471 40.5924C167.471 40.5924 190.191 15.1409 229.651 21.9949C269.111 28.8489 283.911 58.2076 283.911 58.2076C283.911 58.2076 268.431 54.7861 240.621 69.9511C212.811 85.116 187.001 69.4654 181.721 66.5296C176.451 63.5937 168.491 52.7884 170.921 48.6495C173.351 44.5106 187.091 35.703 213.691 38.6388C240.291 41.5747 258.471 52.8325 258.471 52.8325M190.631 43.0313C190.631 43.0313 195.511 51.8389 210.581 56.2427C225.651 60.6465 235.411 59.6642 235.411 59.6642M213.691 38.6282C213.691 38.6282 225.661 28.8381 235.421 29.8205M213.241 140.423C233.571 156.67 230.981 183.49 226.541 201.105C222.101 218.72 193.731 279.899 186.191 295.549C178.651 311.211 144.071 364.056 135.201 372.875C126.331 381.682 85.9814 427.199 34.5514 394.408C-16.8786 361.617 5.30143 303.871 8.40143 293.595C11.5014 283.32 40.3214 247.107 53.1814 232.914C66.0414 218.72 118.361 171.25 133.881 159.021C149.401 146.792 187.531 119.861 213.241 140.423ZM126.781 243.189C138.751 253.465 160.921 275.98 138.311 315.614C115.701 355.248 80.6714 336.662 71.3614 330.294C62.0514 323.925 31.0114 291.631 71.3614 251.014C95.6914 226.523 126.781 243.189 126.781 243.189Z" stroke="black" stroke-miterlimit="10"/>
</svg>
