<svg width="227" height="86" viewBox="0 0 227 86" fill="none" xmlns="http://www.w3.org/2000/svg">
<g filter="url(#filter0_d_10677_736)">
<rect width="203" height="62" transform="translate(11 11)" fill="#5E6600"/>
<path d="M70.552 42.862V50.142L72.814 50.376V51H64.858V50.376L67.12 50.142V34.49L64.858 34.204V33.606H78.118V37.324H77.286L76.298 34.568L70.552 34.49V41.926H75.622L76.428 40.002H77.182V44.838H76.402L75.622 42.862H70.552ZM86.945 44.916C84.9343 44.916 83.669 45.4447 83.149 46.502C82.9237 46.9527 82.811 47.516 82.811 48.192C82.811 49.3533 83.2097 50.0293 84.007 50.22C84.1283 50.2547 84.2583 50.272 84.397 50.272C84.9517 50.272 85.5063 49.986 86.061 49.414C86.6157 48.8247 86.9103 48.0707 86.945 47.152V44.916ZM82.785 42.368C82.4037 42.628 82.005 42.758 81.589 42.758C81.173 42.758 80.8177 42.6193 80.523 42.342C80.2283 42.0647 80.081 41.6573 80.081 41.12C80.081 40.5653 80.2457 40.0713 80.575 39.638C80.9043 39.2047 81.329 38.884 81.849 38.676C82.8717 38.2427 83.8423 38.026 84.761 38.026C86.8063 38.026 88.2017 38.39 88.947 39.118C89.6923 39.8287 90.065 40.9293 90.065 42.42V50.246L92.249 50.402V50.974L87.283 51.286L87.049 49.102C86.2343 50.5753 84.8303 51.312 82.837 51.312C81.9357 51.312 81.1557 51.0433 80.497 50.506C79.8557 49.9513 79.535 49.18 79.535 48.192C79.5523 46.8747 80.211 45.8867 81.511 45.228C82.811 44.552 84.6223 44.214 86.945 44.214V41.978C86.945 40.9207 86.7977 40.106 86.503 39.534C86.2083 38.962 85.6623 38.676 84.865 38.676C84.0677 38.676 83.4697 39.0053 83.071 39.664C82.811 40.0973 82.681 40.5567 82.681 41.042C82.681 41.5273 82.7157 41.9693 82.785 42.368ZM97.9828 50.636C98.5895 50.636 99.0921 50.4453 99.4908 50.064C99.8895 49.6653 100.089 49.024 100.089 48.14C100.089 47.4293 99.7941 46.892 99.2048 46.528C98.7541 46.2507 98.1735 45.982 97.4628 45.722C96.7695 45.4447 96.2321 45.2107 95.8508 45.02C95.4868 44.8293 95.0795 44.578 94.6288 44.266C93.7448 43.642 93.3028 42.7927 93.3028 41.718C93.3028 40.6433 93.7448 39.7593 94.6288 39.066C95.5301 38.3727 96.8388 38.026 98.5548 38.026C99.6295 38.026 100.539 38.26 101.285 38.728C102.03 39.1787 102.403 39.7507 102.403 40.444C102.403 41.1373 102.108 41.64 101.519 41.952C101.241 42.0907 100.964 42.16 100.687 42.16L99.7508 41.874C99.8548 41.3367 99.9068 40.8513 99.9068 40.418C99.9068 39.9673 99.7681 39.5687 99.4908 39.222C99.2135 38.858 98.7975 38.676 98.2428 38.676C96.8908 38.676 96.2148 39.4907 96.2148 41.12C96.2148 41.8653 96.5008 42.42 97.0728 42.784C97.5061 43.0787 98.0608 43.3473 98.7368 43.59C99.4128 43.8153 99.9415 44.0147 100.323 44.188C100.721 44.3613 101.146 44.604 101.597 44.916C102.498 45.5053 102.949 46.3807 102.949 47.542C102.949 48.686 102.472 49.596 101.519 50.272C100.565 50.948 99.3088 51.286 97.7488 51.286C96.0155 51.286 94.7328 51 93.9008 50.428C93.4155 50.0813 93.1728 49.6567 93.1728 49.154C93.1728 48.6513 93.3375 48.244 93.6668 47.932C94.0135 47.62 94.4901 47.4553 95.0968 47.438C95.2181 49.57 96.1801 50.636 97.9828 50.636ZM114.601 50.246L114.757 42.004C114.757 40.9813 114.627 40.236 114.367 39.768C114.107 39.3 113.587 39.066 112.807 39.066C112.027 39.066 111.255 39.5427 110.493 40.496C109.747 41.4493 109.375 42.2727 109.375 42.966V50.246L111.325 50.402V51H104.357V50.402L106.073 50.246V32.332L103.837 32.254V31.63L109.401 31.032V36.856C109.401 38.8147 109.349 40.1407 109.245 40.834H109.401C109.869 39.9673 110.501 39.3 111.299 38.832C112.096 38.364 112.954 38.13 113.873 38.13C116.646 38.13 118.033 39.4647 118.033 42.134C118.033 44.058 117.972 46.762 117.851 50.246L119.645 50.402V51H113.353V50.402L114.601 50.246ZM127.679 51H120.971V50.402L122.661 50.246V39.17L120.425 39.04V38.494L125.989 38.156V50.246L127.679 50.402V51ZM126.171 33.788C126.171 34.308 125.981 34.7587 125.599 35.14C125.235 35.5213 124.776 35.712 124.221 35.712C123.667 35.712 123.199 35.53 122.817 35.166C122.453 34.7847 122.271 34.3253 122.271 33.788C122.271 33.2333 122.462 32.7653 122.843 32.384C123.225 31.9853 123.684 31.786 124.221 31.786C124.759 31.786 125.218 31.9853 125.599 32.384C125.981 32.7827 126.171 33.2507 126.171 33.788ZM140.903 49.414C139.689 50.662 138.034 51.286 135.937 51.286C133.839 51.286 132.184 50.662 130.971 49.414C129.757 48.166 129.151 46.58 129.151 44.656C129.151 42.732 129.757 41.146 130.971 39.898C132.184 38.65 133.839 38.026 135.937 38.026C138.034 38.026 139.689 38.65 140.903 39.898C142.116 41.146 142.723 42.732 142.723 44.656C142.723 46.58 142.116 48.166 140.903 49.414ZM132.765 44.656C132.765 48.66 133.822 50.662 135.937 50.662C138.051 50.662 139.109 48.66 139.109 44.656C139.109 42.6973 138.875 41.2153 138.407 40.21C137.939 39.1873 137.115 38.676 135.937 38.676C134.758 38.676 133.935 39.1873 133.467 40.21C132.999 41.2153 132.765 42.6973 132.765 44.656ZM154.777 50.246L154.933 42.004C154.933 40.9813 154.803 40.236 154.543 39.768C154.283 39.3 153.763 39.066 152.983 39.066C152.203 39.066 151.44 39.534 150.695 40.47C149.967 41.3887 149.585 42.186 149.551 42.862V50.246L151.501 50.402V51H144.533V50.402L146.249 50.246V39.17L144.117 39.066V38.52L149.447 38.208L149.317 40.86H149.577C150.045 39.9933 150.677 39.326 151.475 38.858C152.272 38.3727 153.13 38.13 154.049 38.13C156.822 38.13 158.209 39.4647 158.209 42.134C158.209 44.058 158.148 46.762 158.027 50.246L159.821 50.402V51H153.529V50.402L154.777 50.246Z" fill="white"/>
</g>
<defs>
<filter id="filter0_d_10677_736" x="0" y="0" width="227" height="86" filterUnits="userSpaceOnUse" color-interpolation-filters="sRGB">
<feFlood flood-opacity="0" result="BackgroundImageFix"/>
<feColorMatrix in="SourceAlpha" type="matrix" values="0 0 0 0 0 0 0 0 0 0 0 0 0 0 0 0 0 0 127 0" result="hardAlpha"/>
<feOffset dx="1" dy="1"/>
<feGaussianBlur stdDeviation="6"/>
<feColorMatrix type="matrix" values="0 0 0 0 0 0 0 0 0 0 0 0 0 0 0 0 0 0 0.08 0"/>
<feBlend mode="normal" in2="BackgroundImageFix" result="effect1_dropShadow_10677_736"/>
<feBlend mode="normal" in="SourceGraphic" in2="effect1_dropShadow_10677_736" result="shape"/>
</filter>
</defs>
</svg>
