<svg width="353" height="299" viewBox="0 0 353 299" fill="none" xmlns="http://www.w3.org/2000/svg">
<path d="M253.824 51.3017C253.824 51.3017 251.485 47.8254 266.151 31.0671C280.817 14.3089 310.625 30.0696 310.625 30.0696C310.625 30.0696 288.314 11.7728 266.125 10.5033C243.935 9.23383 228.191 37.7274 225.614 45.6047C223.034 53.4732 229.438 51.7595 236.977 45.7147C244.516 39.6699 233.476 1.81028 233.476 1.81028C233.476 1.81028 220.364 18.9235 205.915 42.2719C191.466 65.6203 183.361 69.0227 177.285 74.9991C171.217 80.9724 158.313 85.7847 151.37 83.731C144.428 81.6774 127.745 61.9384 101.047 59.9964C74.3492 58.0545 51.9056 68.2329 51.9056 68.2329C51.9056 68.2329 76.0255 68.8619 88.0698 75.307C100.114 81.7521 97.4952 93.1381 104.694 94.6512C111.893 96.1643 120.466 81.6962 108.413 82.4603C96.3601 83.2243 62.8205 81.6332 52.0146 96.2121C41.2086 110.791 18.9226 130.995 0.855099 131.832C0.855099 131.832 42.0233 133.37 59.9304 117.661C77.8374 101.953 104.969 110.195 104.969 110.195L142.797 105.919C142.797 105.919 160.05 102.267 156.535 77.6274C153.02 52.9874 155.262 32.9723 160.491 32.0889L176.477 34.5799C176.477 34.5799 164.357 45.3373 174.718 68.4405C185.079 91.5437 188.285 89.0518 188.285 89.0518M172.169 99.4968C186.751 93.4779 212.22 63.2474 240.565 53.6865C278.065 41.0407 327.917 59.9291 347.51 124.453C365.552 183.873 329.128 255.731 247.425 283.36C153.384 315.156 88.134 294.576 55.2068 222.511C29.7749 166.826 55.259 126.195 82.9941 115.102C108.64 104.842 144.719 110.829 172.169 99.4968ZM112.114 128.045C139.163 117.618 161.774 125.971 173.551 147.61C180.827 160.983 197.694 206.879 202.759 222.24C207.824 237.602 211.339 263.575 178.526 272.43C148.616 280.494 126.872 273.023 107.246 251.798C87.7693 230.74 68.1091 193.988 75.5816 166.08C83.0541 138.172 96.9549 133.893 112.114 128.045ZM244.087 80.7625C259.088 75.7077 290.091 71.1446 302.858 94.4144C315.616 117.687 329.806 162.373 320.626 189.534C311.449 216.703 285.546 250.446 250.03 236.954C223.162 226.748 199.373 129.916 205.881 113.3C215.217 89.4734 244.087 80.7625 244.087 80.7625ZM136.381 140.006C132.462 142.087 129.274 146.882 136.789 155.239C145.278 164.669 153.141 164.616 151.358 154.269C149.234 141.884 141.984 137.032 136.381 140.006ZM231.437 106.397C226.972 107.003 222.115 110.387 225.818 120.719C229.999 132.38 237.34 134.991 239.764 124.766C242.659 112.507 237.821 105.529 231.437 106.397ZM274.814 100.774C270.51 99.5098 264.546 100.582 263.001 111.369C261.256 123.546 266.619 128.876 273.622 120.673C282.023 110.823 280.967 102.58 274.814 100.774ZM303.449 146.812C303.575 142.623 300.822 137.598 289.217 139.209C276.115 141.017 272.075 147.275 282.514 151.25C295.029 156.016 303.272 152.804 303.449 146.812ZM297.894 188.753C300.362 185.246 300.843 179.625 290.048 175.365C277.863 170.547 270.896 173.921 277.548 182.381C285.525 192.516 294.368 193.771 297.894 188.753ZM273.562 224.336C277.383 222.111 280.351 217.191 272.471 209.126C263.568 200.023 255.72 200.387 257.96 210.649C260.638 222.955 268.098 227.529 273.562 224.336ZM102.351 160.92C99.1262 163.852 97.3509 169.238 106.893 175.569C117.67 182.718 125.258 180.822 120.725 171.224C115.303 159.734 106.967 156.729 102.351 160.92ZM98.8028 212.066C99.6355 216.179 103.484 220.548 114.455 216.694C126.838 212.343 129.358 205.433 118.246 203.6C104.919 201.407 97.6026 206.173 98.8028 212.066ZM128.045 248.047C131.452 250.799 137.383 252.009 143.414 242.681C150.226 232.143 147.581 225.275 137.638 230.234C125.737 236.17 123.178 244.12 128.045 248.047ZM166.015 260.742C170.033 262.636 176.109 262.474 179.515 252.067C183.36 240.307 178.998 234.245 170.649 241.293C160.645 249.738 160.25 258.025 166.015 260.742Z" stroke="black" stroke-miterlimit="10"/>
</svg>
